<svg xmlns="http://www.w3.org/2000/svg" xmlns:xlink="http://www.w3.org/1999/xlink" width="403px" height="236px" version="1.1"><defs><linearGradient x1="0%" y1="0%" x2="0%" y2="100%" id="mx-gradient-dae8fc-1-7ea6e0-1-s-0"><stop offset="0%" style="stop-color:#DAE8FC"/><stop offset="100%" style="stop-color:#7EA6E0"/></linearGradient><linearGradient x1="0%" y1="0%" x2="0%" y2="100%" id="mx-gradient-d5e8d4-1-67ab9f-1-s-0"><stop offset="0%" style="stop-color:#D5E8D4"/><stop offset="100%" style="stop-color:#67AB9F"/></linearGradient><linearGradient x1="0%" y1="0%" x2="0%" y2="100%" id="mx-gradient-f8cecc-1-ea6b66-1-s-0"><stop offset="0%" style="stop-color:#F8CECC"/><stop offset="100%" style="stop-color:#EA6B66"/></linearGradient><linearGradient x1="0%" y1="0%" x2="0%" y2="100%" id="mx-gradient-d5e8d4-1-97d077-1-s-0"><stop offset="0%" style="stop-color:#D5E8D4"/><stop offset="100%" style="stop-color:#97D077"/></linearGradient><linearGradient x1="0%" y1="0%" x2="0%" y2="100%" id="mx-gradient-f5f5f5-1-b3b3b3-1-s-0"><stop offset="0%" style="stop-color:#F5F5F5"/><stop offset="100%" style="stop-color:#B3B3B3"/></linearGradient></defs><g transform="translate(0.5,0.5)"><rect x="111" y="1" width="180" height="90" rx="13.5" ry="13.5" fill="#ffffff" stroke="#000000" stroke-dasharray="3 3" pointer-events="none"/><ellipse cx="141" cy="46" rx="10" ry="10" fill="#d0d0d0" stroke="#d0d0d0" transform="translate(2,3)" opacity="1"/><ellipse cx="141" cy="46" rx="10" ry="10" fill="url(#mx-gradient-dae8fc-1-7ea6e0-1-s-0)" stroke="#6c8ebf" pointer-events="none"/><ellipse cx="181" cy="46" rx="10" ry="10" fill="#d0d0d0" stroke="#d0d0d0" transform="translate(2,3)" opacity="1"/><ellipse cx="181" cy="46" rx="10" ry="10" fill="url(#mx-gradient-dae8fc-1-7ea6e0-1-s-0)" stroke="#6c8ebf" pointer-events="none"/><ellipse cx="221" cy="46" rx="10" ry="10" fill="#d0d0d0" stroke="#d0d0d0" transform="translate(2,3)" opacity="1"/><ellipse cx="221" cy="46" rx="10" ry="10" fill="url(#mx-gradient-dae8fc-1-7ea6e0-1-s-0)" stroke="#6c8ebf" pointer-events="none"/><ellipse cx="221" cy="76" rx="10" ry="10" fill="#d0d0d0" stroke="#d0d0d0" transform="translate(2,3)" opacity="1"/><ellipse cx="221" cy="76" rx="10" ry="10" fill="url(#mx-gradient-d5e8d4-1-67ab9f-1-s-0)" stroke="#6a9153" pointer-events="none"/><ellipse cx="271" cy="76" rx="10" ry="10" fill="#d0d0d0" stroke="#d0d0d0" transform="translate(2,3)" opacity="1"/><ellipse cx="271" cy="76" rx="10" ry="10" fill="url(#mx-gradient-d5e8d4-1-67ab9f-1-s-0)" stroke="#6a9153" pointer-events="none"/><ellipse cx="251" cy="46" rx="10" ry="10" fill="#d0d0d0" stroke="#d0d0d0" transform="translate(2,3)" opacity="1"/><ellipse cx="251" cy="46" rx="10" ry="10" fill="url(#mx-gradient-dae8fc-1-7ea6e0-1-s-0)" stroke="#6c8ebf" pointer-events="none"/><path d="M 151 46 L 164.63 46" fill="none" stroke="#d0d0d0" stroke-miterlimit="10" transform="translate(2,3)" opacity="1"/><path d="M 151 46 L 164.63 46" fill="none" stroke="#6c8ebf" stroke-miterlimit="10" pointer-events="none"/><path d="M 169.88 46 L 162.88 49.5 L 164.63 46 L 162.88 42.5 Z" fill="#6c8ebf" stroke="#6c8ebf" stroke-miterlimit="10" pointer-events="none"/><path d="M 191 46 L 204.63 46" fill="none" stroke="#d0d0d0" stroke-miterlimit="10" transform="translate(2,3)" opacity="1"/><path d="M 191 46 L 204.63 46" fill="none" stroke="#6c8ebf" stroke-miterlimit="10" pointer-events="none"/><path d="M 209.88 46 L 202.88 49.5 L 204.63 46 L 202.88 42.5 Z" fill="#6c8ebf" stroke="#6c8ebf" stroke-miterlimit="10" pointer-events="none"/><path d="M 188 53 L 206.5 71.5" fill="none" stroke="#000000" stroke-miterlimit="10" pointer-events="none"/><path d="M 210.21 75.21 L 202.78 72.73 L 206.5 71.5 L 207.73 67.78 Z" fill="#000000" stroke="#000000" stroke-miterlimit="10" pointer-events="none"/><path d="M 231 46 L 234.63 46" fill="none" stroke="#d0d0d0" stroke-miterlimit="10" transform="translate(2,3)" opacity="1"/><path d="M 231 46 L 234.63 46" fill="none" stroke="#6c8ebf" stroke-miterlimit="10" pointer-events="none"/><path d="M 239.88 46 L 232.88 49.5 L 234.63 46 L 232.88 42.5 Z" fill="#6c8ebf" stroke="#6c8ebf" stroke-miterlimit="10" pointer-events="none"/><path d="M 231 76 L 254.63 76" fill="none" stroke="#d0d0d0" stroke-miterlimit="10" transform="translate(2,3)" opacity="1"/><path d="M 231 76 L 254.63 76" fill="none" stroke="#6a9153" stroke-miterlimit="10" pointer-events="none"/><path d="M 259.88 76 L 252.88 79.5 L 254.63 76 L 252.88 72.5 Z" fill="#6a9153" stroke="#6a9153" stroke-miterlimit="10" pointer-events="none"/><path d="M 258 53 L 261.76 63.04" fill="none" stroke="#000000" stroke-miterlimit="10" pointer-events="none"/><path d="M 263.61 67.95 L 257.87 62.63 L 261.76 63.04 L 264.43 60.17 Z" fill="#000000" stroke="#000000" stroke-miterlimit="10" pointer-events="none"/><rect x="11" y="131" width="180" height="90" rx="13.5" ry="13.5" fill="#ffffff" stroke="#000000" stroke-dasharray="3 3" pointer-events="none"/><ellipse cx="41" cy="176" rx="10" ry="10" fill="#d0d0d0" stroke="#d0d0d0" transform="translate(2,3)" opacity="1"/><ellipse cx="41" cy="176" rx="10" ry="10" fill="url(#mx-gradient-dae8fc-1-7ea6e0-1-s-0)" stroke="#6c8ebf" pointer-events="none"/><ellipse cx="81" cy="176" rx="10" ry="10" fill="#d0d0d0" stroke="#d0d0d0" transform="translate(2,3)" opacity="1"/><ellipse cx="81" cy="176" rx="10" ry="10" fill="url(#mx-gradient-dae8fc-1-7ea6e0-1-s-0)" stroke="#6c8ebf" pointer-events="none"/><ellipse cx="121" cy="176" rx="10" ry="10" fill="#d0d0d0" stroke="#d0d0d0" transform="translate(2,3)" opacity="1"/><ellipse cx="121" cy="176" rx="10" ry="10" fill="url(#mx-gradient-dae8fc-1-7ea6e0-1-s-0)" stroke="#6c8ebf" pointer-events="none"/><ellipse cx="161" cy="151" rx="10" ry="10" fill="#d0d0d0" stroke="#d0d0d0" transform="translate(2,3)" opacity="1"/><ellipse cx="161" cy="151" rx="10" ry="10" fill="url(#mx-gradient-f8cecc-1-ea6b66-1-s-0)" stroke="#b85450" pointer-events="none"/><path d="M 51 176 L 64.63 176" fill="none" stroke="#d0d0d0" stroke-miterlimit="10" transform="translate(2,3)" opacity="1"/><path d="M 51 176 L 64.63 176" fill="none" stroke="#6c8ebf" stroke-miterlimit="10" pointer-events="none"/><path d="M 69.88 176 L 62.88 179.5 L 64.63 176 L 62.88 172.5 Z" fill="#6c8ebf" stroke="#6c8ebf" stroke-miterlimit="10" pointer-events="none"/><path d="M 91 176 L 104.63 176" fill="none" stroke="#d0d0d0" stroke-miterlimit="10" transform="translate(2,3)" opacity="1"/><path d="M 91 176 L 104.63 176" fill="none" stroke="#6c8ebf" stroke-miterlimit="10" pointer-events="none"/><path d="M 109.88 176 L 102.88 179.5 L 104.63 176 L 102.88 172.5 Z" fill="#6c8ebf" stroke="#6c8ebf" stroke-miterlimit="10" pointer-events="none"/><path d="M 128 169 L 145.99 154.92" fill="none" stroke="#000000" stroke-miterlimit="10" pointer-events="none"/><path d="M 150.12 151.69 L 146.76 158.76 L 145.99 154.92 L 142.45 153.25 Z" fill="#000000" stroke="#000000" stroke-miterlimit="10" pointer-events="none"/><rect x="221" y="131" width="180" height="90" rx="13.5" ry="13.5" fill="#ffffff" stroke="#000000" stroke-dasharray="3 3" pointer-events="none"/><ellipse cx="251" cy="176" rx="10" ry="10" fill="#d0d0d0" stroke="#d0d0d0" transform="translate(2,3)" opacity="1"/><ellipse cx="251" cy="176" rx="10" ry="10" fill="url(#mx-gradient-dae8fc-1-7ea6e0-1-s-0)" stroke="#6c8ebf" pointer-events="none"/><ellipse cx="291" cy="176" rx="10" ry="10" fill="#d0d0d0" stroke="#d0d0d0" transform="translate(2,3)" opacity="1"/><ellipse cx="291" cy="176" rx="10" ry="10" fill="url(#mx-gradient-dae8fc-1-7ea6e0-1-s-0)" stroke="#6c8ebf" pointer-events="none"/><ellipse cx="331" cy="176" rx="10" ry="10" fill="#d0d0d0" stroke="#d0d0d0" transform="translate(2,3)" opacity="1"/><ellipse cx="331" cy="176" rx="10" ry="10" fill="url(#mx-gradient-dae8fc-1-7ea6e0-1-s-0)" stroke="#6c8ebf" pointer-events="none"/><ellipse cx="331" cy="206" rx="10" ry="10" fill="#d0d0d0" stroke="#d0d0d0" transform="translate(2,3)" opacity="1"/><ellipse cx="331" cy="206" rx="10" ry="10" fill="url(#mx-gradient-d5e8d4-1-67ab9f-1-s-0)" stroke="#6a9153" pointer-events="none"/><ellipse cx="381" cy="206" rx="10" ry="10" fill="#d0d0d0" stroke="#d0d0d0" transform="translate(2,3)" opacity="1"/><ellipse cx="381" cy="206" rx="10" ry="10" fill="url(#mx-gradient-d5e8d4-1-67ab9f-1-s-0)" stroke="#6a9153" pointer-events="none"/><ellipse cx="361" cy="176" rx="10" ry="10" fill="#d0d0d0" stroke="#d0d0d0" transform="translate(2,3)" opacity="1"/><ellipse cx="361" cy="176" rx="10" ry="10" fill="url(#mx-gradient-dae8fc-1-7ea6e0-1-s-0)" stroke="#6c8ebf" pointer-events="none"/><path d="M 261 176 L 274.63 176" fill="none" stroke="#d0d0d0" stroke-miterlimit="10" transform="translate(2,3)" opacity="1"/><path d="M 261 176 L 274.63 176" fill="none" stroke="#6c8ebf" stroke-miterlimit="10" pointer-events="none"/><path d="M 279.88 176 L 272.88 179.5 L 274.63 176 L 272.88 172.5 Z" fill="#6c8ebf" stroke="#6c8ebf" stroke-miterlimit="10" pointer-events="none"/><path d="M 301 176 L 314.63 176" fill="none" stroke="#d0d0d0" stroke-miterlimit="10" transform="translate(2,3)" opacity="1"/><path d="M 301 176 L 314.63 176" fill="none" stroke="#6c8ebf" stroke-miterlimit="10" pointer-events="none"/><path d="M 319.88 176 L 312.88 179.5 L 314.63 176 L 312.88 172.5 Z" fill="#6c8ebf" stroke="#6c8ebf" stroke-miterlimit="10" pointer-events="none"/><path d="M 298 183 L 316.5 201.5" fill="none" stroke="#000000" stroke-miterlimit="10" pointer-events="none"/><path d="M 320.21 205.21 L 312.78 202.73 L 316.5 201.5 L 317.73 197.78 Z" fill="#000000" stroke="#000000" stroke-miterlimit="10" pointer-events="none"/><path d="M 341 176 L 344.63 176" fill="none" stroke="#d0d0d0" stroke-miterlimit="10" transform="translate(2,3)" opacity="1"/><path d="M 341 176 L 344.63 176" fill="none" stroke="#6c8ebf" stroke-miterlimit="10" pointer-events="none"/><path d="M 349.88 176 L 342.88 179.5 L 344.63 176 L 342.88 172.5 Z" fill="#6c8ebf" stroke="#6c8ebf" stroke-miterlimit="10" pointer-events="none"/><path d="M 341 206 L 364.63 206" fill="none" stroke="#d0d0d0" stroke-miterlimit="10" transform="translate(2,3)" opacity="1"/><path d="M 341 206 L 364.63 206" fill="none" stroke="#6a9153" stroke-miterlimit="10" pointer-events="none"/><path d="M 369.88 206 L 362.88 209.5 L 364.63 206 L 362.88 202.5 Z" fill="#6a9153" stroke="#6a9153" stroke-miterlimit="10" pointer-events="none"/><path d="M 368 183 L 371.76 193.04" fill="none" stroke="#000000" stroke-miterlimit="10" pointer-events="none"/><path d="M 373.61 197.95 L 367.87 192.63 L 371.76 193.04 L 374.43 190.17 Z" fill="#000000" stroke="#000000" stroke-miterlimit="10" pointer-events="none"/><path d="M 106.15 127.25 L 150.85 94.75" fill="none" stroke="#000000" stroke-miterlimit="10" pointer-events="none"/><path d="M 101.9 130.34 L 105.51 123.39 L 106.15 127.25 L 109.62 129.06 Z" fill="#000000" stroke="#000000" stroke-miterlimit="10" pointer-events="none"/><path d="M 155.1 91.66 L 151.49 98.61 L 150.85 94.75 L 147.38 92.94 Z" fill="#000000" stroke="#000000" stroke-miterlimit="10" pointer-events="none"/><path d="M 305.58 127.66 L 251.42 94.34" fill="none" stroke="#000000" stroke-miterlimit="10" pointer-events="none"/><path d="M 310.05 130.41 L 302.25 129.73 L 305.58 127.66 L 305.92 123.76 Z" fill="#000000" stroke="#000000" stroke-miterlimit="10" pointer-events="none"/><path d="M 246.95 91.59 L 254.75 92.27 L 251.42 94.34 L 251.08 98.24 Z" fill="#000000" stroke="#000000" stroke-miterlimit="10" pointer-events="none"/><path d="M 1 231 C 1 215 1 207 16 207 C 6 207 6 191 16 191 C 26 191 26 207 16 207 C 31 207 31 215 31 231 Z" fill="#d0d0d0" stroke="#d0d0d0" stroke-miterlimit="10" transform="translate(2,3)" opacity="1"/><path d="M 1 231 C 1 215 1 207 16 207 C 6 207 6 191 16 191 C 26 191 26 207 16 207 C 31 207 31 215 31 231 Z" fill="url(#mx-gradient-dae8fc-1-7ea6e0-1-s-0)" stroke="#6c8ebf" stroke-miterlimit="10" pointer-events="none"/><path d="M 211 231 C 211 215 211 207 226 207 C 216 207 216 191 226 191 C 236 191 236 207 226 207 C 241 207 241 215 241 231 Z" fill="#d0d0d0" stroke="#d0d0d0" stroke-miterlimit="10" transform="translate(2,3)" opacity="1"/><path d="M 211 231 C 211 215 211 207 226 207 C 216 207 216 191 226 191 C 236 191 236 207 226 207 C 241 207 241 215 241 231 Z" fill="url(#mx-gradient-d5e8d4-1-97d077-1-s-0)" stroke="#82b366" stroke-miterlimit="10" pointer-events="none"/><path d="M 96 65 C 96 59.67 126 59.67 126 65 L 126 92 C 126 97.33 96 97.33 96 92 Z" fill="#d0d0d0" stroke="#d0d0d0" stroke-miterlimit="10" transform="translate(2,3)" opacity="1"/><path d="M 96 65 C 96 59.67 126 59.67 126 65 L 126 92 C 126 97.33 96 97.33 96 92 Z" fill="url(#mx-gradient-f5f5f5-1-b3b3b3-1-s-0)" stroke="#666666" stroke-miterlimit="10" pointer-events="none"/><path d="M 96 65 C 96 69 126 69 126 65 M 96 67 C 96 71 126 71 126 67 M 96 69 C 96 73 126 73 126 69" fill="none" stroke="#666666" stroke-miterlimit="10" pointer-events="none"/></g></svg>